<svg width="871" height="835" viewBox="0 0 871 835" fill="none" xmlns="http://www.w3.org/2000/svg">
<path d="M11.5048 413.75L9.33975 417.5L11.5048 421.25L220.255 782.816L222.42 786.566H226.75H644.25H648.58L650.745 782.816L859.495 421.25L861.66 417.5L859.495 413.75L650.745 52.1844L648.58 48.4344H644.25H226.75H222.42L220.255 52.1844L11.5048 413.75Z" fill="url(#paint0_linear_113_18)" stroke="#5C48C0" stroke-width="15"/>
<mask id="mask0_113_18" style="mask-type:alpha" maskUnits="userSpaceOnUse" x="18" y="55" width="835" height="725">
<path d="M18 417.5L226.75 55.9344H644.25L853 417.5L644.25 779.066H226.75L18 417.5Z" fill="#E2E2E2"/>
</mask>
<g mask="url(#mask0_113_18)">
<path d="M18 417.5L226.75 55.9344H644.25L853 417.5L644.25 779.066H226.75L18 417.5Z" fill="url(#paint1_linear_113_18)"/>
<path d="M-400 417.5L-191.25 55.9344H226.25L435 417.5L226.25 779.066H-191.25L-400 417.5Z" fill="white"/>
</g>
<path fill-rule="evenodd" clip-rule="evenodd" d="M265 246H286.375V566.625H607V588H265V246ZM478.75 320.812C478.75 317.978 479.876 315.26 481.88 313.255C483.885 311.251 486.603 310.125 489.438 310.125H574.938C577.772 310.125 580.49 311.251 582.495 313.255C584.499 315.26 585.625 317.978 585.625 320.812V406.312C585.625 409.147 584.499 411.865 582.495 413.87C580.49 415.874 577.772 417 574.938 417C572.103 417 569.385 415.874 567.38 413.87C565.376 411.865 564.25 409.147 564.25 406.312V350.738L487.022 445.151C486.077 446.305 484.9 447.248 483.568 447.92C482.236 448.592 480.779 448.977 479.289 449.052C477.799 449.126 476.31 448.888 474.917 448.352C473.525 447.817 472.26 446.996 471.205 445.942L415.907 390.645L337.761 498.097C336.051 500.271 333.565 501.697 330.826 502.077C328.087 502.456 325.307 501.759 323.071 500.132C320.835 498.504 319.317 496.074 318.835 493.351C318.354 490.627 318.947 487.823 320.489 485.528L405.99 367.966C406.897 366.716 408.065 365.677 409.412 364.922C410.76 364.166 412.255 363.712 413.795 363.59C415.335 363.468 416.883 363.682 418.333 364.216C419.782 364.75 421.099 365.591 422.192 366.683L477.959 422.472L552.387 331.5H489.438C486.603 331.5 483.885 330.374 481.88 328.37C479.876 326.365 478.75 323.647 478.75 320.812Z" fill="url(#paint2_linear_113_18)"/>
<defs>
<linearGradient id="paint0_linear_113_18" x1="853" y1="477" x2="853" y2="768" gradientUnits="userSpaceOnUse">
<stop stop-color="#F3F3F3"/>
<stop offset="0.932292" stop-color="#FEFEFE"/>
<stop offset="1" stop-color="white"/>
</linearGradient>
<linearGradient id="paint1_linear_113_18" x1="853" y1="477" x2="853" y2="768" gradientUnits="userSpaceOnUse">
<stop stop-color="#F3F3F3"/>
<stop offset="0.932292" stop-color="#FEFEFE"/>
<stop offset="1" stop-color="white"/>
</linearGradient>
<linearGradient id="paint2_linear_113_18" x1="436" y1="246" x2="436" y2="588" gradientUnits="userSpaceOnUse">
<stop stop-color="#5A48C2"/>
<stop offset="1" stop-color="#C42368"/>
</linearGradient>
</defs>
</svg>
